<?xml version="1.0" encoding="UTF-8"?><svg id="Layer_1" xmlns="http://www.w3.org/2000/svg" xmlns:xlink="http://www.w3.org/1999/xlink" viewBox="0 0 330.68 61.39"><defs><style>.cls-1{fill:#fff;}.cls-2{fill:none;}.cls-3{clip-path:url(#clippath-1);}.cls-4{clip-path:url(#clippath-2);}.cls-5{clip-path:url(#clippath);}.cls-6{fill:#161616;}</style><clipPath id="clippath"><rect class="cls-2" x="19.69" y="5.86" width="38.75" height="38.75"/></clipPath><clipPath id="clippath-1"><path class="cls-2" d="M39.07,5.86c-10.7,0-19.38,8.68-19.38,19.38s8.68,19.37,19.38,19.37,19.37-8.68,19.37-19.37S49.76,5.86,39.07,5.86Z"/></clipPath><clipPath id="clippath-2"><rect class="cls-2" y="12.99" width="59.71" height="27.16"/></clipPath></defs><path class="cls-1" d="M42.12,50.04c-2.83,0-5.51-.41-8.05-1.23-2.53-.83-4.85-2.01-6.96-3.55-2.1-1.53-3.92-3.33-5.46-5.41-1.53-2.09-2.72-4.4-3.57-6.9-.84-2.52-1.25-5.17-1.25-7.94s.41-5.42,1.25-7.92c.85-2.51,2.04-4.8,3.57-6.88,1.55-2.08,3.37-3.88,5.46-5.41,2.11-1.53,4.43-2.71,6.96-3.55,2.54-.83,5.22-1.25,8.05-1.25,2.52,0,5.02.39,7.52,1.15,2.49.75,4.81,1.89,6.96,3.44,2.17,1.53,4,3.47,5.49,5.81,1.51,2.35,2.55,5.12,3.12,8.32h-8.96c-.63-2.47-1.64-4.49-3.04-6.05-1.39-1.58-3.06-2.75-5.01-3.49-1.96-.75-4.07-1.12-6.34-1.12s-4.37.41-6.34,1.23c-1.96.8-3.68,1.96-5.17,3.47-1.49,1.49-2.66,3.28-3.49,5.36-.84,2.08-1.25,4.4-1.25,6.96s.41,4.93,1.25,7.01c.83,2.08,2,3.86,3.49,5.33,1.49,1.48,3.21,2.61,5.17,3.41,1.97.79,4.09,1.17,6.34,1.17s4.38-.37,6.32-1.12c1.93-.76,3.61-1.93,5.01-3.49,1.42-1.58,2.43-3.59,3.04-6.02h8.98c-.57,3.2-1.61,5.98-3.12,8.34-1.49,2.35-3.31,4.29-5.44,5.81-2.13,1.53-4.45,2.67-6.96,3.41s-5.03,1.12-7.57,1.12Z"/><path class="cls-1" d="M85.07,50.12c-2.44,0-4.69-.49-6.77-1.47-2.08-.99-3.89-2.37-5.44-4.13-1.53-1.76-2.72-3.8-3.57-6.13-.84-2.33-1.25-4.81-1.25-7.46s.43-5.12,1.28-7.44c.87-2.31,2.07-4.35,3.6-6.1,1.55-1.76,3.35-3.13,5.41-4.13,2.06-1.01,4.3-1.52,6.72-1.52,2.97,0,5.6.64,7.89,1.92s4.01,3.05,5.17,5.3v-6.13h8.1v36.2h-8.1v-6.08c-1.17,2.24-2.91,4-5.2,5.28-2.28,1.26-4.89,1.89-7.84,1.89ZM87.13,42.23c1.47,0,2.86-.28,4.16-.85,1.29-.59,2.43-1.39,3.39-2.4.97-1.03,1.73-2.23,2.27-3.6.55-1.37.83-2.85.83-4.45s-.28-3.03-.83-4.4c-.55-1.39-1.31-2.59-2.27-3.63-.96-1.03-2.09-1.83-3.39-2.4-1.3-.59-2.69-.88-4.16-.88-1.96,0-3.75.47-5.36,1.41-1.6.95-2.88,2.26-3.84,3.95-.96,1.69-1.44,3.67-1.44,5.94s.49,4.37,1.47,6.05c.97,1.69,2.27,2.99,3.89,3.89,1.61.91,3.37,1.36,5.28,1.36Z"/><path class="cls-1" d="M122.78,49.02h-8.5V12.82h8.16v6.56c.85-1.99,2.09-3.58,3.73-4.77,1.63-1.19,3.63-1.79,6-1.79h3.87v7.33h-3.41c-1.96,0-3.67.47-5.14,1.41-1.48.95-2.63,2.31-3.47,4.08-.82,1.78-1.23,3.97-1.23,6.56v16.82Z"/><path class="cls-1" d="M171.26,49.02h-30.39V1.15h8.77v40.01h21.62v7.86Z"/><path class="cls-1" d="M210.14,30.28c0,.45-.01.87-.03,1.28-.02.39-.07.93-.13,1.63h-28.28c.3,1.97.92,3.65,1.87,5.04.96,1.37,2.14,2.43,3.55,3.17,1.42.75,2.97,1.12,4.64,1.12,2.15,0,3.89-.43,5.22-1.28,1.35-.87,2.33-2.07,2.93-3.6h9.3c-.45,1.64-1.19,3.21-2.21,4.72-1.01,1.49-2.27,2.82-3.76,3.97-1.48,1.16-3.17,2.07-5.09,2.75-1.91.69-3.99,1.04-6.24,1.04-2.72,0-5.22-.5-7.52-1.49s-4.29-2.37-5.97-4.13c-1.67-1.76-2.97-3.8-3.89-6.13-.93-2.33-1.39-4.81-1.39-7.44s.46-5.12,1.39-7.44c.92-2.31,2.22-4.35,3.89-6.1,1.69-1.76,3.68-3.13,5.97-4.13,2.29-1.01,4.8-1.52,7.52-1.52s5.2.5,7.44,1.49c2.25.98,4.19,2.33,5.78,4.05,1.61,1.73,2.85,3.71,3.71,5.94.87,2.23,1.31,4.58,1.31,7.06ZM182.04,26.6h19.41c-.13-1.37-.63-2.6-1.52-3.71-.89-1.12-2.04-2.01-3.44-2.69-1.41-.69-2.95-1.04-4.61-1.04-1.44,0-2.82.27-4.13.8-1.32.52-2.47,1.33-3.47,2.43-1,1.09-1.75,2.49-2.24,4.21Z"/><path class="cls-1" d="M229.6,50.12c-2.44,0-4.69-.49-6.77-1.47-2.08-.99-3.89-2.37-5.44-4.13-1.53-1.76-2.72-3.8-3.57-6.13-.84-2.33-1.25-4.81-1.25-7.46s.43-5.12,1.28-7.44c.87-2.31,2.07-4.35,3.6-6.1,1.55-1.76,3.35-3.13,5.41-4.13,2.06-1.01,4.3-1.52,6.72-1.52,2.97,0,5.6.64,7.89,1.92s4.01,3.05,5.17,5.3v-6.13h8.1v36.2h-8.1v-6.08c-1.17,2.24-2.91,4-5.2,5.28-2.28,1.26-4.89,1.89-7.84,1.89ZM231.65,42.23c1.47,0,2.86-.28,4.16-.85,1.29-.59,2.43-1.39,3.39-2.4.97-1.03,1.73-2.23,2.27-3.6.55-1.37.83-2.85.83-4.45s-.28-3.03-.83-4.4c-.55-1.39-1.31-2.59-2.27-3.63-.96-1.03-2.09-1.83-3.39-2.4-1.3-.59-2.69-.88-4.16-.88-1.96,0-3.75.47-5.36,1.41-1.6.95-2.88,2.26-3.84,3.95-.96,1.69-1.44,3.67-1.44,5.94s.49,4.37,1.47,6.05c.97,1.69,2.27,2.99,3.89,3.89,1.61.91,3.37,1.36,5.28,1.36Z"/><path class="cls-1" d="M267.3,61.39h-8.5V12.82h8.08v6.1c1.31-2.19,3.07-3.92,5.25-5.2,2.19-1.29,4.59-1.95,7.2-1.95s4.94.5,7.09,1.49c2.15,1,4.01,2.37,5.57,4.13,1.58,1.75,2.8,3.77,3.65,6.08.87,2.31,1.31,4.79,1.31,7.44s-.44,5.14-1.31,7.46c-.85,2.33-2.08,4.37-3.68,6.13-1.59,1.76-3.44,3.14-5.57,4.13-2.12.97-4.44,1.47-6.96,1.47-1.78,0-3.46-.29-5.04-.88-1.57-.57-2.97-1.37-4.21-2.4-1.25-1.05-2.26-2.27-3.04-3.65l.16,4.19v14.02ZM277.86,42.25c1.93,0,3.71-.45,5.3-1.36,1.61-.92,2.91-2.23,3.87-3.92.97-1.71,1.47-3.72,1.47-6.05s-.48-4.25-1.44-5.94c-.96-1.69-2.25-3-3.87-3.95-1.6-.94-3.39-1.41-5.36-1.41-1.48,0-2.85.29-4.13.88-1.28.57-2.41,1.37-3.39,2.4-.98,1.03-1.75,2.23-2.29,3.6-.55,1.35-.83,2.83-.83,4.43s.28,3.17.85,4.56c.57,1.37,1.34,2.57,2.32,3.6.99,1.01,2.13,1.8,3.41,2.35,1.29.55,2.65.83,4.08.83Z"/><path class="cls-1" d="M315.46,50.12c-2.65,0-4.96-.36-6.93-1.07-1.96-.69-3.57-1.63-4.85-2.83-1.28-1.21-2.23-2.56-2.85-4.05-.63-1.51-.93-3.07-.93-4.67l8.18.03c.07,1.65.73,3.04,1.97,4.16,1.24,1.11,3.07,1.65,5.49,1.65,2.2,0,3.83-.41,4.88-1.25,1.05-.85,1.57-1.95,1.57-3.31,0-1.03-.29-1.84-.88-2.43-.59-.6-1.46-1.07-2.61-1.41-1.14-.33-2.53-.62-4.16-.85-1.75-.23-3.4-.59-4.96-1.09-1.55-.49-2.93-1.17-4.13-2.03-1.19-.87-2.13-1.96-2.83-3.28-.69-1.31-1.04-2.91-1.04-4.8,0-2.24.51-4.19,1.55-5.84,1.05-1.67,2.59-2.97,4.61-3.92,2.04-.94,4.53-1.41,7.46-1.41s5.46.49,7.65,1.47c2.2.98,3.91,2.35,5.12,4.11,1.23,1.75,1.84,3.76,1.84,6.05l-8.34-.08c-.09-1.33-.66-2.43-1.71-3.28-1.05-.85-2.56-1.28-4.53-1.28-1.83,0-3.17.39-4.03,1.17-.84.79-1.25,1.73-1.25,2.83,0,.91.19,1.64.59,2.19.41.55,1.15,1.01,2.24,1.39,1.1.36,2.68.69,4.75,1.01,1.88.29,3.63.67,5.25,1.15,1.61.47,3.03,1.11,4.24,1.92,1.21.8,2.15,1.84,2.83,3.12.69,1.28,1.04,2.88,1.04,4.8,0,2.65-.67,4.85-2,6.61-1.32,1.75-3.12,3.05-5.41,3.92-2.29.87-4.9,1.31-7.81,1.31Z"/><g class="cls-5"><g class="cls-3"><path class="cls-1" d="M19.69,5.86h38.75v38.75H19.69V5.86Z"/></g></g><g class="cls-4"><path class="cls-6" d="M38.21,40.02c.62.12,1.23-.37,1.36-1.11,0-.25,0-.61-.13-.99h5.42c2.1.25,5.54.37,9.74-.49,5.91-1.23,6.16-20.57,0-21.93-4.19-.86-7.76-.74-9.74-.49-.61.13-2.71.13-5.42,0,.13-.25.13-.61.13-.86,0-.61-.62-1.11-1.36-1.11-.12,0-.37,0-.49.12l.37,1.97c-.13,0-25.5-.37-26.73-.25-2.34.37-2.47.86-4.69,1.11-4.43.74-4.93,2.71-5.17,2.83-.99,1.97-1.35,7.52-1.35,7.64,0,0,0,2.22.99,6.4.86,4.19,6.28,4.07,6.9,4.31.61.25,2.22.74,3.33.99s11.33-.12,12.94,0c1.23,0,6.9-.12,13.8-.25l-.37,1.97c.25.13.37.13.49.13ZM56.32,35.83c-1.6,1.73-2.71.61-2.71.61,0,0,3.33-1.97,4.81-6.52,0,0-.49,4.19-2.1,5.91ZM43.76,34.59v.13c-.86,2.46-7.26.25-9.24,0v-.37c.99-6.03.86-10.34,0-16.01,3.57-.74,6.77-.98,7.14-.98.12,0,.61.12,1.11.12.49.12.87.37,1.11.86,2.09,5.18,1.72,11.21-.13,16.26ZM56.32,17.35c1.48,1.6,1.97,5.42,2.1,5.91-1.48-4.44-4.81-6.53-4.81-6.53,0,0,1.11-.99,2.71.62ZM39.2,16.37c1.6.12,2.09.25,2.09.25,0,0-6.65,1.11-7.76,1.11-1.97,0-17.74.37-19.34-.49-1.73-.99,16.63-1.73,25.01-.86ZM6.19,18.7s0-.13,0,0l8.37.12c-1.23,4.69-1.35,10.35,0,15.15v.25l-8.37.37c-1.61-5.3-2.22-9.85,0-15.89ZM14.08,35.95c.98-.62,7.14-.62,12.32-.62.12,0,3.82,0,7.14.13,1.11,0,7.76,1.11,7.76,1.11-10.72,1.23-28.7.12-27.22-.61Z"/></g></svg>