<svg fill="none" height="106" viewBox="0 0 107 106" width="107" xmlns="http://www.w3.org/2000/svg">
  <path d="M16.685 24.5711L22.047 29.6456L23.6646 27.9541L21.6277 26.0549L24.9527 22.4642L23.6646 21.1881L20.3396 24.7788L18.8418 23.2951L23.6646 18.2206L22.3765 16.9446L15.7265 24.0666C16.056 24.2744 16.3855 24.3634 16.685 24.5711ZM28.4574 13.888L28.5773 22.3751L30.6142 21.2178V19.5263L35.437 16.7665L36.8149 17.7161L38.8519 16.5588L30.8239 11.4843L27.9482 13.0868C28.2478 13.2352 28.4574 13.5616 28.4574 13.888ZM33.6996 15.7872L30.5843 17.5974L30.4644 13.6803L33.6996 15.7872ZM48.797 14.3035H51.0437V11.9591H54.9079L56.6153 14.3035H59.1915L57.2744 11.7514L57.484 11.6327C58.4426 11.0985 59.1016 10.0302 58.9818 8.8729C59.1016 7.18141 57.8135 5.78667 56.196 5.69765C56.0761 5.69765 55.9863 5.69765 55.7766 5.69765H48.827H48.3777C48.5873 6.02408 48.7072 6.32083 48.797 6.64726V14.3035ZM55.4471 7.62654C56.0761 7.62654 56.6153 8.16069 56.6153 8.78388V8.90258C56.7352 9.52576 56.196 10.0599 55.5369 10.1786C55.4171 10.1786 55.4171 10.1786 55.3273 10.1786H50.9538V7.62654H55.4471ZM100.919 46.6198C100.38 43.6523 98.4628 41.5454 96.2161 41.5454C96.0064 41.5454 95.7967 41.5453 95.5871 41.6641C93.0109 42.0795 91.633 44.8393 92.1722 48.1333C92.7114 51.2195 94.5386 53.2077 96.8751 53.2077C97.0848 53.2077 97.2945 53.2077 97.5042 53.089C100.05 52.6736 101.458 49.9138 100.919 46.6198ZM97.0549 50.7744C96.935 50.7744 96.7254 50.7744 96.6355 50.7744C95.3474 50.7744 94.269 49.617 93.9695 47.8068C93.64 45.6999 94.3889 44.2161 95.8866 43.9787C96.0064 43.9787 96.2161 43.9787 96.306 43.9787C97.5941 43.9787 98.6724 45.1361 98.972 46.9462C99.4213 48.9642 98.6724 50.5666 97.0549 50.7744ZM80.909 17.8052L80.0403 24.2744L80.1601 24.3931L86.3609 22.9093L82.946 27.4793L84.6534 29.0817L89.8956 22.2861L87.9784 20.4759L82.5266 21.6333L83.1557 16.0246L81.1187 14.1254L80.909 13.9177C80.909 14.3331 80.7892 14.6596 80.4896 14.986L75.1277 20.1792L76.8351 21.7816L80.909 17.8052ZM67.1895 17.0633C68.0582 17.3897 68.897 17.4787 69.7657 17.4787C71.6828 17.5974 73.3903 16.5291 74.1391 14.7189C74.5585 13.4429 74.3488 12.1669 73.5999 11.0095C72.7312 9.85218 71.563 8.9916 70.185 8.57615C69.3163 8.24972 68.4776 8.1607 67.6089 8.1607C65.6918 7.95297 63.8645 9.1103 63.2354 10.9205C62.3967 13.3539 63.9843 15.8763 67.1895 17.0633ZM65.3922 11.6624C65.7217 10.5941 66.7702 9.97088 67.8485 10.0599C68.3877 10.0599 68.9269 10.1786 69.4661 10.3863C71.3833 11.1282 72.3418 12.4933 71.8326 13.977C71.5031 15.0454 70.4546 15.6685 69.3763 15.5795C68.8371 15.5795 68.2979 15.4608 67.7587 15.2531C65.8116 14.5112 64.853 13.1461 65.3922 11.6624ZM53.5 0C23.9642 0 0 23.7402 0 53C0 82.2598 23.9642 106 53.5 106C83.0358 106 107 82.2598 107 53C107 23.7402 83.0358 0 53.5 0ZM53.5 103.863C25.1324 103.863 2.12682 81.0728 2.12682 52.9703C2.12682 24.8679 25.1624 2.10694 53.5 2.10694C81.8376 2.10694 104.873 24.8975 104.873 53C104.873 81.1025 81.8676 103.863 53.5 103.863ZM6.11086 47.8068C6.23068 47.6881 6.44037 47.6881 6.53024 47.6881C6.73992 47.6881 6.94961 47.6881 7.06943 47.8068L13.9292 53L14.2587 50.7744L12.8807 49.706L13.7494 44.3052L15.367 43.771L15.6965 41.5454L6.70996 44.5129L6.11086 47.8068ZM11.7724 44.9283L11.2332 48.43L8.11786 46.0857L11.7724 44.9283ZM53.8295 35.6103L53.9493 35.4916L53.8295 35.3729C52.3317 34.3046 51.2534 32.7318 50.6243 31.0403C50.2948 30.2984 49.8754 29.5566 49.3362 28.9334C48.9169 28.3992 48.168 28.0728 47.509 28.0728C47.1795 28.0728 46.7601 28.0728 46.4306 28.1915H46.2209L46.3407 28.3992C46.5504 28.9334 46.9698 29.3488 47.509 29.5565H47.6288H47.9583C48.5873 29.972 48.9168 32.7318 48.9168 34.1265C48.9168 34.3343 48.797 34.453 48.5873 34.453C48.3777 34.453 48.0482 34.3343 47.9583 34.1265C47.5389 33.7111 46.9997 33.5034 46.4605 33.5034C45.3821 33.3847 44.4236 34.2452 44.3337 35.3135V35.5213C44.4535 36.5896 45.4121 37.4205 46.4605 37.3315C46.9997 37.3315 47.6288 37.1237 47.9583 36.7083C48.168 36.5006 48.3777 36.3819 48.5873 36.3819C48.797 36.3819 48.9168 36.5006 48.9168 36.7083C48.9168 38.0733 48.5873 40.8331 47.9583 41.2783H47.5389C46.9997 41.486 46.5803 41.9015 46.3707 42.4356L46.2508 42.6433H46.4605C46.79 42.762 47.2094 42.762 47.5389 42.762C48.2878 42.762 48.9168 42.4356 49.3662 41.9015C49.9952 41.2783 50.4446 40.5364 50.6543 39.7945C51.2534 38.1624 52.4516 36.6786 53.8295 35.6103ZM52.5414 23.9479C53.0806 23.9479 53.5 23.5325 53.5 22.9983C53.5 22.4642 53.0806 22.0487 52.5414 22.0487C52.0022 22.0487 51.5829 22.4642 51.5829 22.9983C51.5829 23.4138 52.0022 23.8292 52.5414 23.9479ZM52.2119 26.2923H60.6593C60.9888 26.2923 61.2884 25.9658 61.2884 25.6691C61.2884 25.3427 60.9588 25.0459 60.6593 25.0459H52.2119C51.8824 25.0459 51.5829 25.3723 51.5829 25.6691C51.5829 26.0549 51.9124 26.2923 52.2119 26.2923ZM53.5 17.36C33.6996 17.36 17.5537 33.355 17.6436 52.9703C17.7634 72.5857 33.7895 88.5806 53.5899 88.4916C73.3903 88.4916 89.4462 72.5857 89.4462 52.8813C89.4462 33.3847 73.4202 17.36 53.5 17.36ZM30.8239 78.1053C24.6232 72.5857 20.6691 65.1668 19.6806 57.0062H30.8239V78.1053ZM30.8239 48.7564H19.6806C20.759 40.7144 24.5932 33.266 30.8239 27.8651V48.7564ZM64.5235 85.0196C56.2858 87.7794 47.1795 87.3639 39.2713 83.6545V57.0358H48.8869C47.9283 54.276 48.2578 51.3085 49.516 48.7564H39.2413V22.3751C49.0966 17.9238 60.5395 18.2503 69.9454 23.4434C71.1137 24.1853 71.4432 25.6691 70.6943 26.8264C70.2749 27.5683 69.4062 27.9838 68.5675 27.9838H64.2839C63.4152 27.8651 62.6663 28.1915 62.0372 28.7256C60.869 29.794 61.2883 30.9513 58.832 30.9513H52.0921C52.9608 32.5538 54.1291 33.9188 55.6268 34.8684H63.8645C64.194 34.8684 64.4936 35.0761 64.6134 35.4026C64.6134 35.5213 64.6134 35.6103 64.7332 35.729V35.8477C64.6134 36.2632 64.3138 36.4709 63.9843 36.4709H55.6268C53.9194 37.4205 52.7511 38.9043 52.0921 40.7144H67.1895C68.1481 40.5957 69.0168 41.3376 69.1067 42.3169C69.2265 43.2665 68.4776 44.1271 67.4891 44.2161C67.3693 44.2161 67.2794 44.2161 67.1596 44.2161H59.5509C54.3088 44.2161 50.0252 48.4597 50.0252 53.6529C50.0252 58.846 54.3088 63.0896 59.5509 63.0896H69.0767C69.4961 63.0896 69.8256 63.416 69.8256 63.8315C69.8256 64.2469 69.4961 64.5733 69.0767 64.5733H59.3413C55.477 64.5733 52.3917 67.6596 52.3917 71.458C52.3917 75.2861 55.507 78.3427 59.3413 78.3427H63.0857C65.0028 78.3427 66.5006 79.8264 66.5006 81.7256C66.4406 83.0907 65.6918 84.3667 64.5235 85.0196ZM79.0817 30.5062C91.603 44.5129 90.3149 65.8197 76.206 78.1943C73.6299 80.4199 70.7542 82.3191 67.549 83.7139L67.4292 83.8326H67.549C70.4247 82.4675 71.6229 79.0549 70.215 76.2951C69.2564 74.2772 67.2195 73.0011 65.0927 73.0011H59.1016C58.6822 73.0011 58.3527 72.6747 58.3527 72.2592C58.3527 71.8438 58.6822 71.5174 59.1016 71.5174H69.2564C74.0792 71.3096 77.8236 67.3925 77.6139 62.6148C77.4941 58.0448 73.7497 54.4541 69.2564 54.3354H59.4012C58.9818 54.3354 58.6523 54.009 58.6523 53.5935C58.6523 53.178 58.9818 52.8516 59.4012 52.8516H66.89C74.7981 52.9703 81.3284 46.5901 81.3284 38.7559C81.3284 35.9071 80.4597 33.1473 78.8721 30.7139C78.8721 30.6249 78.9619 30.6249 79.0817 30.5062C78.9619 30.5062 78.9619 30.5062 79.0817 30.5062C79.0817 30.6249 78.9619 30.5062 79.0817 30.5062ZM56.4955 23.8292C57.0347 23.8292 57.4541 23.4138 57.4541 22.8796C57.4541 22.3455 57.0347 21.93 56.4955 21.93C55.9563 21.93 55.5369 22.3455 55.5369 22.8796C55.5369 23.4138 55.9563 23.8292 56.4955 23.8292ZM89.0269 32.7318L90.4048 31.9899L92.6514 36.3225L94.269 35.4619L92.0224 31.1293L93.3105 30.3875L96.6355 36.6489L98.2531 35.7884L93.7598 27.2122C93.64 27.5386 93.3404 27.8354 93.0109 28.0728L86.4807 31.5745L90.974 40.1506L92.4717 39.29L89.0269 32.7318ZM18.8418 30.8326L15.9661 36.5599L9.97508 33.4737L8.68701 35.9071C8.80683 35.9071 9.01651 35.9071 9.10638 35.9071C9.31607 35.9071 9.52576 35.9071 9.73544 36.0258L16.3555 39.4087L20.3096 31.6635L18.8418 30.8326ZM60.3597 23.8292C60.8989 23.8292 61.3183 23.4138 61.3183 22.8796C61.3183 22.3455 60.8989 21.93 60.3597 21.93C59.8205 21.93 59.4012 22.3455 59.4012 22.8796C59.4012 23.4138 59.8205 23.8292 60.3597 23.8292Z" fill="currentColor"></path>
</svg>